<svg width="34" height="34" viewBox="0 0 34 34" fill="none" xmlns="http://www.w3.org/2000/svg" xmlns:xlink="http://www.w3.org/1999/xlink">
<path d="M32.709,6.198C32.472,5.914 32.12,5.75 31.75,5.75L6.544,5.75L5.78,1.553C5.564,0.364 4.529,-0.5 3.32,-0.5L0.5,-0.5C-0.19,-0.5 -0.75,0.06 -0.75,0.75C-0.75,1.44 -0.19,2 0.5,2L3.313,2L7.306,23.92C7.424,24.57 7.711,25.178 8.139,25.681C6.5,27.212 6.284,29.735 7.639,31.522C8.995,33.309 11.482,33.782 13.398,32.617C15.315,31.451 16.04,29.026 15.077,27L22.173,27C21.894,27.585 21.749,28.226 21.75,28.875C21.75,31.291 23.709,33.25 26.125,33.25C28.541,33.25 30.5,31.291 30.5,28.875C30.5,26.459 28.541,24.5 26.125,24.5L10.995,24.5C10.391,24.5 9.874,24.068 9.766,23.473L9.27,20.75L27.395,20.75C29.208,20.75 30.76,19.453 31.084,17.67L32.984,7.223C33.049,6.858 32.949,6.482 32.709,6.198L32.709,6.198ZM13,28.875C13,29.911 12.161,30.75 11.125,30.75C10.089,30.75 9.25,29.911 9.25,28.875C9.25,27.839 10.089,27 11.125,27C12.161,27 13,27.839 13,28.875L13,28.875ZM28,28.875C28,29.911 27.161,30.75 26.125,30.75C25.089,30.75 24.25,29.911 24.25,28.875C24.25,27.839 25.089,27 26.125,27C27.161,27 28,27.839 28,28.875L28,28.875ZM28.625,17.223C28.517,17.82 27.996,18.252 27.391,18.25L8.816,18.25L6.998,8.25L30.252,8.25L28.625,17.223Z" clip-rule="evenodd" fill-rule="evenodd" fill="#121417"/>
</svg>
