<svg width="42" height="36" viewBox="0 0 42 36" fill="none" xmlns="http://www.w3.org/2000/svg" xmlns:xlink="http://www.w3.org/1999/xlink">
<path d="M29.375,0C25.503,0 22.113,1.665 20,4.479C17.887,1.665 14.497,0 10.625,0C4.208,0.007 -0.993,5.208 -1,11.625C-1,24.75 18.461,35.374 19.289,35.812C19.733,36.051 20.267,36.051 20.711,35.812C21.539,35.374 41,24.75 41,11.625C40.993,5.208 35.792,0.007 29.375,0L29.375,0ZM20,32.775C16.576,30.78 2,21.692 2,11.625C2.006,6.864 5.864,3.006 10.625,3C14.272,3 17.334,4.943 18.612,8.063C18.844,8.625 19.392,8.993 20,8.993C20.608,8.993 21.156,8.625 21.388,8.063C22.666,4.937 25.728,3 29.375,3C34.136,3.006 37.994,6.864 38,11.625C38,21.677 23.42,30.778 20,32.775L20,32.775Z" clip-rule="evenodd" fill-rule="evenodd" fill="#121417"/>
</svg>
