<svg width="40" height="40" viewBox="0 0 40 40" fill="none" xmlns="http://www.w3.org/2000/svg" xmlns:xlink="http://www.w3.org/1999/xlink">
<path d="M20,11C15.029,11 11,15.029 11,20C11,24.971 15.029,29 20,29C24.971,29 29,24.971 29,20C28.995,15.032 24.968,11.005 20,11L20,11ZM20,26C16.686,26 14,23.314 14,20C14,16.686 16.686,14 20,14C23.314,14 26,16.686 26,20C26,23.314 23.314,26 20,26L20,26ZM29,0.5L11,0.5C5.204,0.506 0.506,5.204 0.5,11L0.5,29C0.506,34.796 5.204,39.494 11,39.5L29,39.5C34.796,39.494 39.494,34.796 39.5,29L39.5,11C39.494,5.204 34.796,0.506 29,0.5L29,0.5ZM36.5,29C36.5,33.142 33.142,36.5 29,36.5L11,36.5C6.858,36.5 3.5,33.142 3.5,29L3.5,11C3.5,6.858 6.858,3.5 11,3.5L29,3.5C33.142,3.5 36.5,6.858 36.5,11L36.5,29ZM32,10.25C32,11.493 30.993,12.5 29.75,12.5C28.507,12.5 27.5,11.493 27.5,10.25C27.5,9.007 28.507,8 29.75,8C30.993,8 32,9.007 32,10.25L32,10.25Z" clip-rule="evenodd" fill-rule="evenodd" fill="#000000"/>
</svg>
