<svg width="34" height="40" viewBox="0 0 34 40" fill="none" xmlns="http://www.w3.org/2000/svg" xmlns:xlink="http://www.w3.org/1999/xlink">
<path d="M32.5,17C32.5,21.232 31.019,25.1 28.332,27.896C25.823,30.5 22.422,32 19,32C15.647,32 13.409,30.901 11.982,29.75L9.961,38.343C9.801,39.021 9.196,39.5 8.5,39.5C8.384,39.5 8.268,39.487 8.155,39.461C7.766,39.371 7.429,39.131 7.218,38.792C7.007,38.454 6.939,38.045 7.03,37.657L13.03,12.157C13.22,11.35 14.027,10.85 14.834,11.039C15.64,11.229 16.141,12.036 15.951,12.843L12.782,26.306C13.375,27.125 15.119,29 19,29C24.162,29 29.5,24.511 29.5,17C29.498,11.326 25.948,6.259 20.616,4.319C15.284,2.379 9.308,3.98 5.66,8.326C2.012,12.672 1.471,18.835 4.306,23.75C4.694,24.464 4.442,25.358 3.738,25.765C3.034,26.171 2.134,25.943 1.709,25.25C-1.758,19.243 -1.098,11.709 3.361,6.396C7.82,1.083 15.125,-0.874 21.642,1.498C28.16,3.87 32.499,10.064 32.5,17L32.5,17Z" clip-rule="evenodd" fill-rule="evenodd" fill="#000000"/>
</svg>
