<svg width="40" height="40" viewBox="0 0 40 40" fill="none" xmlns="http://www.w3.org/2000/svg" xmlns:xlink="http://www.w3.org/1999/xlink">
<path d="M39.061,36.939L29.673,27.552C35.326,20.766 34.641,10.734 28.118,4.779C21.596,-1.176 11.543,-0.948 5.297,5.297C-0.948,11.543 -1.176,21.596 4.779,28.118C10.734,34.641 20.766,35.326 27.552,29.673L36.939,39.061C37.525,39.647 38.475,39.647 39.061,39.061C39.647,38.475 39.647,37.525 39.061,36.939L39.061,36.939ZM3.5,17C3.5,9.544 9.544,3.5 17,3.5C24.456,3.5 30.5,9.544 30.5,17C30.5,24.456 24.456,30.5 17,30.5C9.548,30.492 3.508,24.452 3.5,17L3.5,17Z" clip-rule="evenodd" fill-rule="evenodd" fill="#61788A"/>
</svg>
