<svg width="42" height="36" viewBox="0 0 42 36" fill="none" xmlns="http://www.w3.org/2000/svg" xmlns:xlink="http://www.w3.org/1999/xlink">
<path d="M40.386,4.926C40.154,4.366 39.607,4 39,4L33.294,4C31.672,1.239 28.721,-0.468 25.519,-0.5C23.149,-0.531 20.868,0.395 19.191,2.069C17.464,3.763 16.494,6.081 16.5,8.5L16.5,9.642C8.951,7.651 2.777,1.51 2.711,1.444C2.3,1.03 1.686,0.891 1.137,1.089C0.588,1.287 0.204,1.786 0.152,2.367C-0.656,11.328 1.946,17.324 4.277,20.776C5.413,22.482 6.796,24.011 8.379,25.313C5.524,28.6 1.028,30.327 0.979,30.346C0.55,30.506 0.218,30.854 0.077,31.29C-0.063,31.725 0.003,32.202 0.257,32.583C0.397,32.792 0.96,33.529 2.334,34.217C4.033,35.069 6.278,35.5 9,35.5C22.251,35.5 33.322,25.296 34.453,12.167L40.061,6.561C40.49,6.132 40.618,5.487 40.386,4.926L40.386,4.926ZM31.948,10.441C31.691,10.698 31.536,11.041 31.513,11.404C30.75,23.234 20.865,32.5 9,32.5C7.02,32.5 5.625,32.237 4.646,31.923C6.804,30.751 9.814,28.735 11.749,25.833C11.978,25.488 12.055,25.063 11.96,24.66C11.866,24.256 11.609,23.91 11.25,23.702C11.162,23.652 3.017,18.764 3,5.703C6,8.14 11.484,11.922 17.751,12.976C18.185,13.049 18.63,12.927 18.967,12.643C19.304,12.359 19.499,11.941 19.5,11.5L19.5,8.5C19.497,6.884 20.146,5.334 21.3,4.203C22.407,3.094 23.915,2.48 25.481,2.5C27.855,2.53 30.073,3.977 31.001,6.102C31.24,6.648 31.78,7 32.376,7L35.376,7L31.948,10.441Z" clip-rule="evenodd" fill-rule="evenodd" fill="#000000"/>
</svg>
